<?xml version="1.0" standalone="no"?>
<!DOCTYPE svg PUBLIC "-//W3C//DTD SVG 20010904//EN"
 "http://www.w3.org/TR/2001/REC-SVG-20010904/DTD/svg10.dtd">
<svg version="1.0" xmlns="http://www.w3.org/2000/svg"
 width="500.000000pt" height="500.000000pt" viewBox="0 0 500.000000 500.000000"
 preserveAspectRatio="xMidYMid meet">

<g transform="translate(0.000000,500.000000) scale(0.100000,-0.100000)"
fill="#000000" stroke="none">
<path d="M3179 3943 c-13 -16 -12 -17 4 -4 16 13 21 21 13 21 -2 0 -10 -8 -17
-17z"/>
<path d="M2658 3873 c7 -3 16 -2 19 1 4 3 -2 6 -13 5 -11 0 -14 -3 -6 -6z"/>
<path d="M2540 3860 c-13 -8 -12 -10 3 -10 9 0 17 5 17 10 0 12 -1 12 -20 0z"/>
<path d="M2498 3843 c7 -3 16 -2 19 1 4 3 -2 6 -13 5 -11 0 -14 -3 -6 -6z"/>
<path d="M3021 3790 c-44 -42 -58 -60 -45 -59 11 0 40 27 67 60 26 32 46 59
45 59 -2 -1 -32 -28 -67 -60z"/>
<path d="M3466 3769 c-43 -70 -92 -116 -158 -150 -93 -47 -176 -62 -303 -55
-128 7 -158 13 -151 32 3 8 0 14 -7 15 -7 0 -5 3 5 7 9 4 32 21 50 38 19 17
47 36 64 42 59 21 -330 19 -436 -3 -145 -30 -298 -90 -397 -155 l-31 -21 5 21
c9 34 143 140 241 189 24 12 42 24 40 26 -6 6 -168 -43 -200 -60 -14 -8 -39
-15 -55 -15 -19 0 -24 -3 -15 -9 11 -7 10 -10 -3 -15 -9 -3 -22 -3 -27 1 -7 4
-8 1 -3 -7 6 -10 2 -11 -17 -7 -18 5 -32 -1 -56 -23 -17 -16 -34 -24 -37 -19
-4 5 -3 9 2 9 4 0 1 5 -7 11 -13 9 -12 10 3 5 9 -3 17 -1 17 4 0 6 -6 10 -12
10 -10 0 -9 3 1 9 11 7 11 9 0 13 -9 3 -8 6 5 11 9 4 15 3 12 -1 -2 -4 -1 -14
5 -22 6 -11 9 -5 9 20 0 52 -13 67 -44 52 -14 -6 -26 -16 -26 -22 0 -6 -5 -8
-12 -4 -7 5 -9 2 -5 -9 4 -11 2 -14 -9 -10 -25 9 -131 -88 -223 -204 -156
-198 -206 -451 -140 -720 21 -89 21 -126 -1 -49 -15 55 -38 66 -80 36 -17 -12
-30 -24 -30 -28 0 -8 -49 -32 -66 -32 -30 0 -39 260 -14 400 7 41 13 85 14 97
1 11 4 19 9 16 4 -2 7 2 7 11 0 8 3 23 7 33 6 16 5 16 -9 3 -8 -9 -32 -51 -53
-95 -20 -44 -41 -81 -46 -83 -5 -2 -9 -12 -9 -23 0 -10 -4 -19 -8 -19 -4 0
-16 -15 -26 -32 -23 -40 -55 -72 -63 -64 -20 20 66 336 118 439 16 30 18 42 8
53 -9 11 -15 12 -25 3 -8 -6 -14 -8 -14 -4 0 5 -9 0 -20 -10 -11 -10 -20 -24
-20 -32 0 -7 -4 -13 -8 -13 -10 0 -94 -142 -112 -190 -8 -19 -17 -37 -20 -40
-14 -10 -60 -138 -84 -234 -37 -141 -49 -261 -43 -416 8 -194 50 -377 121
-534 30 -65 33 -79 25 -117 -4 -24 -8 -89 -9 -145 0 -186 61 -346 172 -449
129 -120 385 -207 418 -144 7 11 9 32 6 45 -4 13 -4 24 -1 24 4 0 29 -23 57
-51 82 -80 242 -145 307 -124 26 8 28 52 6 95 -19 36 -12 37 56 5 30 -13 96
-35 147 -49 471 -126 1026 31 1366 385 246 256 365 552 355 883 -5 134 -16
159 -52 113 -48 -62 -86 -102 -91 -97 -3 3 -2 37 2 75 7 62 13 76 51 124 51
65 82 124 110 210 26 79 28 109 6 91 -8 -7 -15 -9 -15 -4 0 5 -7 0 -15 -10 -8
-11 -15 -16 -15 -11 0 21 -44 -35 -80 -103 -73 -134 -210 -257 -353 -316 -221
-92 -384 -96 -747 -20 -369 78 -631 51 -866 -91 -88 -53 -126 -66 -139 -45 -3
6 -19 10 -36 10 -16 0 -29 4 -29 9 0 25 128 132 214 179 51 29 99 52 105 52 7
0 10 4 7 9 -17 27 -249 -82 -350 -163 -37 -31 -72 -54 -76 -51 -5 3 -10 -1
-13 -7 -3 -10 -9 -10 -28 0 -26 14 -82 9 -87 -7 -2 -6 -10 -7 -18 -4 -9 3 -14
0 -12 -8 2 -7 -3 -13 -10 -14 -8 0 -20 -9 -28 -19 -8 -11 -14 -16 -14 -11 0
20 157 187 225 240 68 53 73 57 53 50 -11 -5 -20 1 -28 17 -10 21 -10 21 3 5
9 -11 18 -14 21 -8 4 5 2 12 -3 16 -6 3 -9 11 -7 18 1 7 1 9 -1 5 -3 -5 -9 -8
-14 -8 -6 0 -7 5 -4 10 3 6 1 10 -4 10 -6 0 -11 -8 -11 -17 -1 -16 -2 -16 -16
2 -8 11 -20 19 -25 17 -6 -1 -8 2 -4 8 5 8 11 8 20 0 9 -8 14 -6 19 5 3 9 2
13 -4 10 -6 -3 -10 -4 -10 -1 0 9 173 99 249 129 42 17 105 37 141 47 58 14
65 19 72 46 3 16 13 55 22 87 8 31 11 55 6 52 -5 -3 -10 5 -12 17 -3 22 -28
39 -28 18 0 -6 4 -9 9 -5 6 3 9 -4 8 -15 -1 -20 -2 -20 -14 -4 -7 9 -14 22
-17 28 -3 6 -16 -2 -30 -19 -34 -40 -33 -26 5 49 70 137 228 348 227 301 0
-11 5 -33 11 -49 l12 -29 27 26 28 27 33 -58 c64 -110 321 -664 321 -691 0 -5
12 -12 28 -15 317 -64 575 -73 712 -26 191 66 326 194 365 345 4 18 9 24 12
15 3 -8 7 -22 11 -30 8 -21 11 -46 16 -108 2 -29 6 -55 8 -57 2 -3 22 30 44
72 38 74 39 79 39 177 0 80 -4 108 -19 136 -56 104 -121 149 -214 150 -89 0
-135 -30 -186 -121 l-18 -34 -10 25 c-5 13 -13 27 -17 30 -5 3 -15 19 -24 35
-8 17 -25 40 -37 53 l-22 23 59 62 c82 89 147 224 168 352 3 22 8 49 11 60 3
11 -15 -21 -40 -71 -89 -178 -244 -275 -421 -261 -38 3 -95 14 -125 24 l-55
18 65 8 c229 28 394 163 450 370 7 26 11 49 9 51 -2 3 -17 -18 -33 -45z
m-1491 -69 c3 -6 -1 -7 -9 -4 -18 7 -21 14 -7 14 6 0 13 -4 16 -10z m-70 -40
c-3 -5 -12 -10 -18 -10 -7 0 -6 4 3 10 19 12 23 12 15 0z m135 -40 c-14 -11
-29 -20 -35 -20 -5 0 4 9 20 20 38 25 48 25 15 0z m791 -181 c34 -38 160 -263
226 -401 38 -78 47 -105 35 -101 -9 3 -14 3 -10 -2 4 -4 0 -21 -9 -36 l-17
-29 -84 168 c-46 92 -89 172 -94 177 -6 6 -4 -3 4 -20 14 -28 20 -48 36 -115
8 -36 5 -200 -4 -200 -1 0 -34 66 -74 148 -40 81 -104 200 -141 265 -38 65
-76 131 -84 147 l-15 30 41 -5 c58 -8 116 -40 134 -75 9 -17 18 -30 21 -30 3
0 -8 24 -25 54 -17 29 -31 56 -31 59 0 3 15 3 33 1 19 -3 42 -17 58 -35z
m-1573 -49 c-7 -10 -14 -17 -17 -15 -4 4 18 35 25 35 2 0 -1 -9 -8 -20z m1967
-214 c87 -41 168 -152 216 -296 14 -40 15 -50 4 -36 -13 18 -14 17 -20 -6 -3
-13 -19 -29 -36 -37 -18 -8 -28 -19 -25 -26 2 -7 2 -16 -1 -19 -4 -3 -23 38
-43 92 -37 97 -89 204 -142 295 -15 26 -28 50 -28 52 0 11 28 4 75 -19z
m-1635 -561 c0 -5 -5 -3 -10 5 -5 8 -10 20 -10 25 0 6 5 3 10 -5 5 -8 10 -19
10 -25z m2256 -437 c-9 -135 -54 -328 -75 -328 -13 0 -44 108 -44 151 0 27 -3
36 -13 32 -8 -3 -14 -11 -14 -18 0 -33 -63 -194 -99 -254 -51 -84 -126 -167
-147 -163 -9 2 -13 -1 -9 -7 3 -6 1 -11 -4 -11 -14 0 -14 6 0 32 8 15 8 23 -2
32 -9 8 -10 8 -5 -1 4 -8 -6 -12 -34 -11 -22 0 -46 -5 -53 -11 -8 -6 -17 -8
-21 -4 -9 9 55 74 66 67 5 -3 7 -2 6 3 -2 4 2 8 7 8 6 0 9 -4 7 -8 -1 -5 2 -6
8 -2 8 5 8 11 0 20 -8 10 -4 23 16 51 59 87 103 192 128 306 4 19 17 32 39 42
19 7 50 28 70 46 l37 32 0 -52 c0 -32 4 -49 10 -45 6 3 8 16 5 28 -5 18 7 37
54 86 34 36 61 68 61 73 0 4 3 8 6 8 4 0 4 -46 0 -102z m-666 -193 c0 -90 -17
-158 -60 -245 -66 -132 -145 -206 -272 -256 -52 -20 -60 -21 -73 -8 -8 9 -15
20 -15 25 0 5 -9 9 -19 9 -11 0 -21 9 -25 23 -5 22 -13 24 -118 36 -62 7 -151
23 -198 37 -158 44 -393 180 -429 248 -13 23 -11 29 23 74 20 27 54 66 76 86
l40 36 535 0 535 0 0 -65z m126 -382 c-2 -9 -11 -17 -20 -19 -17 -2 -17 -2 0
17 21 23 23 23 20 2z m-76 -48 c0 -2 -10 -9 -22 -15 -22 -11 -22 -10 -4 4 21
17 26 19 26 11z m-50 -30 c0 -7 -90 -51 -120 -59 -14 -4 7 9 45 28 82 40 75
37 75 31z m-175 -80 c-16 -8 -39 -14 -50 -14 -11 0 -2 6 20 14 52 17 68 17 30
0z m-95 -25 c-14 -4 -41 -8 -60 -8 l-35 1 40 7 c57 10 87 10 55 0z m-293 -6
c-3 -3 -12 -4 -19 -1 -8 3 -5 6 6 6 11 1 17 -2 13 -5z m161 -11 c-21 -2 -57
-2 -80 0 -24 2 -7 4 37 4 44 0 63 -2 43 -4z"/>
<path d="M3465 1619 c-4 -6 -5 -12 -2 -15 2 -3 7 2 10 11 7 17 1 20 -8 4z"/>
<path d="M2140 3800 c-9 -6 -10 -10 -3 -10 6 0 15 5 18 10 8 12 4 12 -15 0z"/>
<path d="M2072 3760 c-7 -11 -17 -20 -23 -20 -5 0 -8 4 -4 9 3 5 0 13 -6 17
-7 4 -9 3 -6 -3 4 -6 0 -13 -8 -17 -19 -7 -20 -26 -1 -26 18 0 73 46 66 54 -3
3 -11 -4 -18 -14z"/>
<path d="M3010 3740 c0 -5 5 -10 11 -10 5 0 7 5 4 10 -3 6 -8 10 -11 10 -2 0
-4 -4 -4 -10z"/>
<path d="M1306 3435 c4 -8 11 -15 16 -15 6 0 5 6 -2 15 -7 8 -14 15 -16 15 -2
0 -1 -7 2 -15z"/>
</g>
</svg>
